# xmcd
#
# Track frame offsets: 
#        150
#        14601
#        31404
#        43598
#        56344
#        67143
#        81110
#        97343
#        110794
#        120550
#        136158
#        143769
#        162963
#        174951
#        184964
#        196084
#        209855
#        221596
#        239436
#        251089
#        262430
#        277172
#        290333
#        300822
#        315419
#        330865
#        339109
#
# Disc length: 4713 seconds
#
# Revision: 1
# Processed by: cddbd v1.5.2PL0 Copyright (c) Steve Scherf et al.
# Submitted via: ExactAudioCopy v1.3
#
DISCID=9912671b
DTITLE=Marko Čermák - 60 mil romantickou stezkou
DYEAR=2000
DGENRE=Bluegrass
TTITLE0=Flaming Star
TTITLE1=Bilá
TTITLE2=Rozmarná kráska
TTITLE3=Sněžní hadi
TTITLE4=Hoganovo jezero
TTITLE5=Šakalici ( Jen si hrej )
TTITLE6=Uhliky
TTITLE7=Briga Polina
TTITLE8=Lokálka
TTITLE9=Jsem unavený
TTITLE10=Kamarád
TTITLE11=Marná cesta
TTITLE12=Hříva
TTITLE13=Toulám se
TTITLE14=Klondike
TTITLE15=Saskatchewan
TTITLE16=Čekání na vlak
TTITLE17=Vrcholek světa
TTITLE18=Vítr
TTITLE19=Na sluneční straně hor
TTITLE20=Nářek dívky
TTITLE21=Stíny Irokézů
TTITLE22=Pár tónů
TTITLE23=Nashville Tennessee
TTITLE24=Měsíční pláně
TTITLE25=Hardy
TTITLE26=Volání
EXTD=YEAR: 2000
EXTT0=
EXTT1=
EXTT2=
EXTT3=
EXTT4=
EXTT5=
EXTT6=
EXTT7=
EXTT8=
EXTT9=
EXTT10=
EXTT11=
EXTT12=
EXTT13=
EXTT14=
EXTT15=
EXTT16=
EXTT17=
EXTT18=
EXTT19=
EXTT20=
EXTT21=
EXTT22=
EXTT23=
EXTT24=
EXTT25=
EXTT26=
PLAYORDER=
